<svg id="Layer_1" data-name="Layer 1" xmlns="http://www.w3.org/2000/svg" viewBox="0 0 94.74 32"><defs><style>.cls-1{font-size:16px;font-family:Montserrat-SemiBold, Montserrat;font-weight:700;}.cls-1,.cls-4{fill:#fff;}.cls-2{letter-spacing:0.03em;}.cls-3{fill:#1db954;}</style></defs><title>zippify_logo</title><text class="cls-1" transform="translate(38.85 20.96)">zippi<tspan class="cls-2" x="40.32" y="0">f</tspan><tspan x="46.75" y="0">y</tspan></text><circle class="cls-3" cx="16" cy="16" r="16"/><path class="cls-4" d="M22.54,10.91V8.84L26,12l-3.44,3.16V13.11c-.8,0-1.56,0-2.3,0a1.35,1.35,0,0,0-.82.48c-.6.74-1.15,1.52-1.68,2.31-.73,1.07-1.38,2.2-2.14,3.24a4,4,0,0,1-2.68,1.76,3.56,3.56,0,0,1-.51,0H6.84V18.74h.44c1.6,0,3.19,0,4.79,0A1.89,1.89,0,0,0,13.72,18c.54-.71,1-1.46,1.54-2.2.75-1.11,1.43-2.26,2.24-3.33a3.65,3.65,0,0,1,3.3-1.54C21.37,10.94,21.94,10.91,22.54,10.91Z"/><path class="cls-4" d="M26,20.33l-3.43,3.15v-2c-.69,0-1.33,0-2,0a3.9,3.9,0,0,1-3.29-1.67.45.45,0,0,1-.06-.4c.37-.61.77-1.19,1.17-1.81.28.37.52.71.79,1a1.7,1.7,0,0,0,1.46.65c.61,0,1.22,0,1.88,0V17.16Z"/><path class="cls-4" d="M14.07,14.73c-.23-.25-.41-.48-.62-.67a1.68,1.68,0,0,0-1.2-.46c-1.79,0-3.59,0-5.41,0V11.39h5.62a3.83,3.83,0,0,1,2.62,1.08.33.33,0,0,1,.08.5C14.78,13.55,14.43,14.14,14.07,14.73Z"/></svg>